<svg xmlns="http://www.w3.org/2000/svg" class="el-tooltip" style="margin: auto;" color-interpolation-filters="sRGB" preserveAspectRatio="xMidYMid meet" width="100%" height="100%" version="1.0" data-v-10f38804="">
    <g class="iconsvg-imagesvg" transform="translate(0 7.78992)">
        <svg class="image-svg-svg" x="0" y="0" width="60" height="35.7677" filtersec="colorsb3224346953">
            <svg viewBox="0 0 162.23 96.71">
                <g>
                    <g>
                        <path fill="#6f8397" d="M 57.71 25.86 H 26.67 L 41.68 96.7 h 31.21 L 57.71 25.86 Z" />
                        <path fill="#6f8397" d="M 75.09 28.79 L 49.8 96.71 h 27.88 l 25.29 -67.92 H 75.09 Z" />
                        <path fill="#6f8397" d="M 75.82 28.79 L 90.21 96.7 h 27.57 l -14.55 -67.91 H 75.82 Z" />
                        <path fill="#6f8397" d="M 131.92 0 h 30.31 l -36.02 96.71 h -30.3 L 131.92 0 Z" />
                        <path fill="#445665" d="M 61.9 45.45 l -4.19 -19.58 h -31 l 1.9 9 C 44.11 33.71 60.1 37 61.9 45.45 Z" />
                        <path fill="#f30" d="M 61.9 45.45 c -0.51 -2.41 -6.19 -28.91 -6.19 -28.91 C 52.17 0 43.14 0 33.82 0 H 0.46 s -6 28.22 25.37 28.22 H 27 c 11.23 0 30.87 -1.61 34.9 17.23 Z" />
                    </g>
                </g>
            </svg>
        </svg>
    </g>
</svg>